<svg xmlns="http://www.w3.org/2000/svg" width="45.097" height="68.87" viewBox="0 0 45.097 68.87"><defs><style>.a{fill:#ffdf1b;}.b{fill:#b9ecff;}.c{fill:#0f0e0d;}.d,.e,.f,.g{fill:#2d2621;}.e{opacity:0.12;}.f{opacity:0.15;}.g,.h{opacity:0.2;}.h{fill:#fff;}</style></defs><g transform="translate(12.229 18.536)"><path class="a" d="M112.9,116.182l-10.631-.459a1.831,1.831,0,0,1-1.647-2.664,8.118,8.118,0,0,1,6.21-4.49,7.117,7.117,0,0,1,4.309.93c.612.368,2.963,1.78,2.914,4.07A4.082,4.082,0,0,1,112.9,116.182Z" transform="translate(-95.491 -108.536)"/><path class="a" d="M118,185.4c-3.327,1.368-4.725,1.617-5.326,1.507a8.274,8.274,0,0,0-1.144-.144c-.55-.031-.708.016-1.168-.007a6.272,6.272,0,0,1-1.457-.251,5.776,5.776,0,0,1-1.743-.873c.054-.046.1-.094.155-.14a31.017,31.017,0,0,0,3.985-4.472c.074-.1.262-.357.283-.385a3.55,3.55,0,0,1,.823-.65,3.325,3.325,0,0,1,.868-.012C116.293,180.331,117.814,184.826,118,185.4Z" transform="translate(-101.091 -167.753)"/><path class="a" d="M74.3,245.376a2.242,2.242,0,0,1,.027-.358,2.108,2.108,0,0,0-.5-.62,2.316,2.316,0,0,0-.637-.372,3.258,3.258,0,0,0-1.561-.194,2.933,2.933,0,0,0-.025.358v.02a17.11,17.11,0,0,0,1.5,7.069c.118.261.241.515.375.767a8.438,8.438,0,0,0,.751.557.52.52,0,0,0,.425.133.366.366,0,0,0,.2-.18,2.322,2.322,0,0,1-.551-1.5v-5.677Z" transform="translate(-71.605 -220.709)"/><path class="a" d="M177.82,236.844c-.1-.06-.246-.083-1.46.478a15.866,15.866,0,0,0-1.753.876c-.275.173-.568.316-.85.478a1.877,1.877,0,0,1-.478.212,1.694,1.694,0,0,1-.558.053.684.684,0,0,0-.212.319.7.7,0,0,0,.029.477q-.075,2.688-.151,5.376a15,15,0,0,1,.184,1.653,1.8,1.8,0,0,0,.761.168,2.528,2.528,0,0,0,1.328-.531,14.428,14.428,0,0,1,1.7-.876,11.752,11.752,0,0,0,1.5-3.981c.126-.71-.033-.215.151-3.065C178.073,237.577,178.122,237.024,177.82,236.844Z" transform="translate(-155.176 -214.907)"/></g><g transform="translate(3.883 28.945)"><path class="b" d="M36.475,173.442c-.154.245-.38.583-.677.967a12.8,12.8,0,0,1-3.047,2.805,13.3,13.3,0,0,1-3.1,1.5c-.442.146-.788.234-1.016.29a6.115,6.115,0,0,1-2.612.339,3.389,3.389,0,0,1-1.707-.906,5.2,5.2,0,0,1-1.581-3.646,5.326,5.326,0,0,1,5.349-5.3h7.1a1.3,1.3,0,0,1-.116.757c-.933,1.816-7.169,1.558-7.787,2.225-.06.065-.263.35-.387.532-.184.27-.228.362-.193.435.051.108.249.127.435.145a1.222,1.222,0,0,0,.29,0,1.736,1.736,0,0,0,.871-.29,58.78,58.78,0,0,1,7.013-1.935h0a1.2,1.2,0,0,1,1.161,2.08Z" transform="translate(-22.739 -169.493)"/><path class="b" d="M159.327,172.947c.159.264.389.623.688,1.032a14.921,14.921,0,0,0,2.942,2.981,10.24,10.24,0,0,0,3.821,2.063l.573.115a10.513,10.513,0,0,0,2.522.42,2.647,2.647,0,0,0,1.728-1.123,5.2,5.2,0,0,0,1.581-3.646,5.326,5.326,0,0,0-5.349-5.3h-7.1a1.786,1.786,0,0,0,.237.7c1.193,1.98,6.861,2.03,7.872,2.407a1.729,1.729,0,0,1,.573.382c.125.125.236.239.229.382-.01.223-.3.392-.5.459-.239.079-.422.035-1.027-.1-.79-.171-.7-.145-.807-.172-.653-.173-3.07-.952-6.343-2.063h0a1.158,1.158,0,0,0-1.567.115A1.142,1.142,0,0,0,159.327,172.947Z" transform="translate(-135.852 -169.491)"/><path class="b" d="M109.546,246.727a43.142,43.142,0,0,1-6.642.418,23.323,23.323,0,0,1-4.68-.608,2.318,2.318,0,0,1-1.5-1.9c-.046-.713,0-6.246,0-6.246s.177-1.526,1.333-1.6,3.712.187,5.323.166a22.853,22.853,0,0,0,3.826-.438c1.3-.247,3.146.18,3.156,2.406.009,1.867.009,5.986-.008,6.239A2.272,2.272,0,0,1,109.546,246.727Z" transform="translate(-84.069 -225.015)"/></g><g transform="translate(0.004 0)"><path class="c" d="M16.555,42.316c0-.026.007-.052.011-.077,0,.025-.007.051-.01.077Zm28.563-9.3a7.3,7.3,0,0,1-7.3,7.3,10.565,10.565,0,0,1-1.2-.074c.04.528.062,1.064.062,1.6,0,7-3.523,13.176-8.975,15.729a7.384,7.384,0,0,0-1.83,1.164,15.842,15.842,0,0,0-3.344,4.527A15.052,15.052,0,0,0,19.2,58.728a7.438,7.438,0,0,0-1.827-1.167C11.923,55,8.415,48.814,8.43,41.811c0-.526.023-1.051.063-1.568a10.319,10.319,0,0,1-1.174.071,7.3,7.3,0,0,1,0-14.591h4.9a10.384,10.384,0,0,1,5.721-8.233l-3.974-9.46a1.867,1.867,0,1,1,1.96-.711l3.966,9.437a10.365,10.365,0,0,1,5.258-.006L30.36,2.978a1.863,1.863,0,1,1,1.968.688L27.105,17.482a10.386,10.386,0,0,1,5.736,8.241h4.981A7.3,7.3,0,0,1,45.118,33.019ZM16.786,25.724H28.278c.048,0,.1,0,.143-.006a.734.734,0,0,0,.081-.009c.02,0,.039,0,.059-.007a1.8,1.8,0,0,0,.844-.362c.023-.017.045-.035.066-.053.045-.039.088-.079.128-.121a1.069,1.069,0,0,0,.078-.089.931.931,0,0,0,.069-.085.555.555,0,0,0,.043-.059c.01-.014.02-.029.029-.043a1.6,1.6,0,0,0,.089-.151c.028-.053.053-.107.077-.161a1.807,1.807,0,0,0,.124-.9v0a.843.843,0,0,0-.016-.1.683.683,0,0,0-.022-.1c-.007-.035-.017-.071-.027-.105a.723.723,0,0,0-.035-.1,1.711,1.711,0,0,0-.089-.206,8.342,8.342,0,0,0-.8-1.272c-.049-.066-.1-.131-.154-.2-.16-.2-.33-.391-.509-.574q-.091-.093-.182-.182c-.1-.095-.2-.187-.3-.275-.03-.028-.059-.053-.089-.078,0,0,0,0,0,0-.043-.039-.085-.074-.13-.108l-.036-.029c-.058-.049-.117-.095-.177-.14s-.114-.087-.173-.128c-.21-.153-.43-.3-.655-.427-.026-.016-.052-.032-.079-.046-.046-.027-.094-.053-.141-.079s-.115-.063-.173-.092l-.066-.035c-.069-.036-.138-.069-.209-.1s-.153-.072-.231-.1-.154-.068-.234-.1c-.157-.063-.316-.121-.477-.173s-.326-.1-.492-.144c-.079-.021-.16-.042-.241-.059l-.026,0c-.078-.02-.157-.036-.237-.05s-.169-.032-.255-.045-.172-.028-.258-.038a8.264,8.264,0,0,0-8.455,4.489A1.831,1.831,0,0,0,16.786,25.724ZM10.3,37.665c.189-.065.376-.136.561-.215.079-.03.156-.065.234-.1l.056-.025c.167-.074.334-.153.5-.237.1-.052.2-.1.3-.157s.179-.1.267-.147.177-.1.264-.153q.264-.156.521-.325c.17-.111.34-.228.508-.346q.125-.089.251-.182c.127-.094.251-.188.375-.284s.248-.195.369-.294c.092-.075.185-.151.275-.229s.182-.156.271-.235.179-.157.267-.238c.114-.1.226-.208.339-.313.019-.019.036-.036.055-.052.112-.108.225-.216.335-.326s.235-.235.35-.353.228-.235.339-.355c0,0,0,0,0,0,.084-.089.167-.179.249-.27.069-.075.139-.151.206-.228l.087-.1.061-.069h0c.017-.033.035-.066.049-.1a.993.993,0,0,0,.042-.092,1.433,1.433,0,0,0,.056-.151.09.09,0,0,0,.007-.017s0,0,0,0a.1.1,0,0,1,.006-.019.154.154,0,0,0,.009-.032.114.114,0,0,0,.006-.019,0,0,0,0,0,0,0,.042.042,0,0,0,0-.019.231.231,0,0,0,.009-.043.007.007,0,0,0,0-.007s0,0,0,0a.461.461,0,0,0,.009-.059.391.391,0,0,0,0-.069c0-.02,0-.038,0-.055a.011.011,0,0,0,0-.007v0a.226.226,0,0,0-.009-.048.033.033,0,0,1,0-.011.044.044,0,0,0,0-.014,0,0,0,0,1,0,0,.047.047,0,0,0-.007-.02,0,0,0,0,0,0,0,.119.119,0,0,0-.016-.038c0-.006-.008-.011-.011-.018s-.012-.017-.017-.026h0a.158.158,0,0,0-.027-.035.08.08,0,0,0-.022-.022l-.009-.007c-.293-.259-.969-.107-.969-.107-.036.016-.075.03-.112.046a32.359,32.359,0,0,1-7.946,2.133,1.1,1.1,0,0,1-.138.009,1.03,1.03,0,0,1-.847-.443l0,0a.79.79,0,0,1-.052-.082.87.87,0,0,1-.046-.089c-.014-.03-.026-.062-.038-.094a.972.972,0,0,1-.029-.1,1.114,1.114,0,0,1-.027-.21.7.7,0,0,1,0-.111c0-.009,0-.017,0-.026a.922.922,0,0,1,.035-.166c.006-.017.011-.036.019-.053a.3.3,0,0,1,.017-.048.309.309,0,0,1,.02-.043.047.047,0,0,1,.009-.017s0,0,0,0a1.129,1.129,0,0,1,.858-.594,30.44,30.44,0,0,0,7.786-2.153.8.8,0,0,0-.317-1.526H7.459a5.324,5.324,0,0,0-5.349,5.3,5.221,5.221,0,0,0,3.8,4.929.035.035,0,0,1,.011,0c.074.021.148.04.225.058l.01,0c.072.017.144.032.218.045s.124.022.185.03h.013a.594.594,0,0,0,.072.01.1.1,0,0,0,.02,0c.058.009.115.014.175.02l.045,0c.058.006.114.009.172.011H7.1c.074,0,.147.006.222.006l.21,0c.068,0,.134,0,.2-.007l.058,0,.134-.009c.133-.009.255-.02.371-.035.03,0,.06-.007.089-.011.177-.023.332-.05.466-.079.045-.009.087-.019.126-.027.059-.014.114-.027.161-.04.032-.007.061-.016.087-.023l.17-.053.026-.009h0l.022-.006c.192-.049.384-.1.573-.166C10.108,37.73,10.2,37.7,10.3,37.665Zm24.3,4.179q0-.117,0-.255a2.937,2.937,0,0,0-.143-.819h0l-.012.008c-.136.085-.274.169-.413.252-.019.011-.038.023-.058.033q-.188.113-.381.221l-.108.062c-.136.077-.271.15-.408.222-.153.082-.307.161-.463.239a.021.021,0,0,1-.01.006.027.027,0,0,1-.011.006c-.079.04-.159.079-.239.118-.19.094-.384.185-.577.271q-.128.058-.255.112c-.246.11-.5.212-.747.311l-.28.107c-.1.038-.2.074-.294.11a.073.073,0,0,1-.017.006,2.284,2.284,0,0,0-.258-.769c-.026-.046-.052-.091-.081-.134a.107.107,0,0,0-.011-.017c-.029-.045-.059-.088-.091-.13-.045-.059-.092-.117-.143-.172l-.078-.081a2.3,2.3,0,0,0-.738-.492,2.2,2.2,0,0,0-.212-.078l-.036-.011c-.023-.007-.048-.013-.071-.019s-.061-.016-.092-.022a1.909,1.909,0,0,0-.254-.039c-.036,0-.072-.007-.108-.009a2.328,2.328,0,0,0-.477.024c-.525.081-1.051.147-1.578.2l-.213.022-.213.019-.1.01q-.182.017-.363.03h-.009l-.3.022-.053,0-.247.016-.335.017-.386.016c-.257.009-.515.014-.771.017l-.379,0h-.019l-.375,0c-.1,0-.193,0-.29,0l-.216,0c-.218-.007-.436-.014-.653-.024s-.412-.021-.619-.036-.414-.029-.62-.048l-.154-.013-.466-.045c-.206-.022-.411-.046-.617-.071-.309-.039-.617-.081-.924-.128-.055-.007-.107-.014-.16-.019-.03,0-.062,0-.092-.006H17.3a2.322,2.322,0,0,0-2.332,1.961l-.3-.112c-.148-.055-.3-.114-.441-.173s-.265-.107-.4-.163l-.225-.1-.309-.138c-.193-.088-.385-.18-.575-.274-.151-.075-.3-.151-.447-.228a2.627,2.627,0,0,1,.172-.665,2.985,2.985,0,0,1,1.517-1.617,18.239,18.239,0,0,0,4.359-2.965c.213.043.431.081.647.114.153.029.306.052.459.072.222.033.447.06.671.084.156.019.314.033.472.046a.02.02,0,0,0,.013,0c.326.027.655.05.986.066s.673.023,1.015.023a22.482,22.482,0,0,0,3.072-.209c.363-.05.724-.108,1.08-.176q.947-.177,1.863-.434a31.884,31.884,0,0,1-4.675-4.878,1.871,1.871,0,0,0-.363-.355,1.81,1.81,0,0,0-2.535.4l-.016.023-.061.082-.222.3c-1.977,2.671-4.916,5.894-8.5,7.576A2.941,2.941,0,0,0,10.516,41.8v.022c-.014,6.1,3.152,11.557,7.742,13.858a9.663,9.663,0,0,0,3.961,1.007l.133,0,.1,0H22.6c.091,0,.183,0,.275,0l.1,0q.093,0,.19-.009l.11-.007c.042,0,.084,0,.127-.009s.062,0,.094-.009a.306.306,0,0,0,.05,0c.045,0,.088-.007.133-.013a.074.074,0,0,0,.019,0c.069-.007.137-.014.2-.025l.221-.032.219-.038L24.5,56.5l.1-.02a.538.538,0,0,0,.065-.014l.014,0-.079.017-.1.02-.164.032-.219.038L23.9,56.6c-.068.009-.136.017-.2.024a.074.074,0,0,1-.019,0c-.045.006-.088.01-.133.013a.3.3,0,0,1-.05,0c-.032,0-.062.007-.094.009s-.085.007-.127.009l-.11.007q-.1.007-.19.009l-.1,0c-.092,0-.185,0-.275,0H22.47l-.118,0-.133,0a9.577,9.577,0,0,1-2.228-.786c-.134-.068-.268-.137-.4-.21-.066-.036-.131-.072-.2-.111a12,12,0,0,1-1.165-.764c-.053-.039-.108-.079-.161-.123a12,12,0,0,1-.92-.779h0a14.6,14.6,0,0,1-3.024-4.032c.112.046.225.091.339.136s.222.087.335.128l.01,0,.213.078.193.069c.092.032.186.065.281.1a2.308,2.308,0,0,0,1.366.787,32.653,32.653,0,0,0,11.43,0,2.3,2.3,0,0,0,1.095-.515,2.255,2.255,0,0,0,.224-.229c.03-.009,0-.019.035-.03h0c.043-.015,0,0,0,0q.134-.043.268-.091h0c.228-.079.453-.161.678-.249a.377.377,0,0,0,.046-.017c.1-.039.208-.081.31-.123l.251-.1c.053-.023.108-.045.161-.069s.136-.058.2-.088c.13-.056.258-.115.386-.175l.294-.138c.156-.075.309-.15.462-.229.089-.045.179-.091.267-.137l.074-.039h0A16.842,16.842,0,0,0,34.6,41.844Zm8.421-8.43a5.215,5.215,0,0,0-5.2-5.605H29.514a.8.8,0,0,0-.727,1.136.734.734,0,0,0,.195.257.757.757,0,0,0,.141.1c.024.013.049.026.075.038a30.432,30.432,0,0,0,7.784,2.153,1.15,1.15,0,0,1,.479.177c.02.013.04.027.059.042a1.049,1.049,0,0,1,.255.268.981.981,0,0,1,.17.578A1.043,1.043,0,0,1,36.9,33.57a1.106,1.106,0,0,1-.138-.009,31.2,31.2,0,0,1-5.086-1.116c-.151-.046-.3-.094-.451-.141-.3-.1-.591-.195-.878-.3-.144-.05-.285-.1-.425-.154-.3-.108-.583-.219-.864-.33l-.254-.1a.1.1,0,0,1-.022-.006h0L28.7,31.4s-1.019-.232-1.1.355h0a.385.385,0,0,0,0,.058,1.363,1.363,0,0,0,.2.637l.117.131c.112.127.226.254.343.381.024.026.048.053.072.079.14.151.283.3.427.45l.112.115c.111.112.222.224.336.335l.143.138c.117.114.237.226.358.337l.108.1c.154.141.311.281.472.418l.112.1c.125.105.252.21.379.313l.157.126c.125.1.251.195.378.29.045.033.089.068.136.1.169.124.34.244.513.362.033.022.066.042.1.063.143.1.287.188.431.277l.17.1c.131.078.264.154.4.228l.156.087c.182.1.366.192.551.28.023.01.045.019.068.03.164.077.329.149.5.216l.177.071c.138.053.277.1.418.153.058.019.115.04.175.059.193.062.388.121.584.17.275.069.549.127.825.169l.079.013c.042.007.085.013.128.019s.091.013.137.017c.03,0,.059.007.088.009s.07.009.107.011l.193.016c.074,0,.149.009.222.01h.04l.127,0a5.518,5.518,0,0,0,2.107-.42l.01,0A5.211,5.211,0,0,0,43.019,33.415Z" transform="translate(-0.025 0)"/></g><g transform="translate(19.48 42.987)"><path class="d" d="M119.73,256.074l-4.024,2.324a1.093,1.093,0,0,1-1.637-.946v-4.647a1.089,1.089,0,0,1,1.637-.946l1.1.635h0l2.927,1.689a1.09,1.09,0,0,1,0,1.89Z" transform="translate(-114.068 -251.712)"/></g><g transform="translate(4.582 18.569)"><path class="e" d="M39.567,184.584c-.2.222-.4.444-.6.663a21.818,21.818,0,0,1-2.975,2.682,12.605,12.605,0,0,1-4.319,2.144,6.4,6.4,0,0,1-2.119.306,5.111,5.111,0,0,1-1.836-.337,5.138,5.138,0,0,1-.882-1.132,5.08,5.08,0,0,0,1.82.331,6.4,6.4,0,0,0,2.119-.306,12.6,12.6,0,0,0,4.319-2.144,21.793,21.793,0,0,0,2.975-2.682c.168-.176.329-.354.487-.533l.112-.046,0,0S40.329,183.153,39.567,184.584Z" transform="translate(-26.833 -170.718)"/><path class="e" d="M161.7,184.583c.2.222.4.444.6.663a21.793,21.793,0,0,0,2.975,2.682,12.608,12.608,0,0,0,4.319,2.144,6.4,6.4,0,0,0,2.119.306,5.111,5.111,0,0,0,1.836-.337,5.138,5.138,0,0,0,.882-1.132,5.081,5.081,0,0,1-1.82.331,6.4,6.4,0,0,1-2.119-.306,12.605,12.605,0,0,1-4.319-2.144,21.818,21.818,0,0,1-2.975-2.682c-.168-.176-.329-.354-.487-.533l-.112-.046,0,0S160.934,183.153,161.7,184.583Z" transform="translate(-138.499 -170.718)"/><path class="f" d="M139.8,115.888h-1.2a1.842,1.842,0,0,0,1.642-2.674,8.294,8.294,0,0,0-5.729-4.377c.212-.046.413-.079.6-.1a8.3,8.3,0,0,1,6.325,4.479A1.842,1.842,0,0,1,139.8,115.888Z" transform="translate(-116.123 -108.734)"/><path class="e" d="M110.464,241.7v5.677a2.321,2.321,0,0,1-.029.365c0,.016-.006.032-.009.049a1.755,1.755,0,0,1-.045.2c-.009.033-.019.065-.029.1,0,.016-.01.033-.016.049a.324.324,0,0,1-.017.048c-.017.046-.035.094-.055.138s-.042.091-.066.136-.032.059-.049.088-.035.061-.053.089c0,0,0,0,0,0a.312.312,0,0,1-.019.027.464.464,0,0,1-.038.058.489.489,0,0,1-.036.046s0,0,0,0a.327.327,0,0,0-.02.026l-.01.013c-.02.026-.04.053-.062.079h0c-.035.04-.069.079-.107.117l-.035.035c-.038.038-.077.073-.117.108h0c-.212.033-.42.066-.63.1.006-.027.011-.055.014-.082h0a2.493,2.493,0,0,0,.039-.428v-5.677a2.292,2.292,0,0,0-.317-1.172,2.32,2.32,0,0,0-2.359-1.122,32.659,32.659,0,0,1-9.572.046h0c0-.026.007-.052.011-.077s0-.02,0-.029c.013-.071.027-.14.046-.208a.36.36,0,0,1,.01-.036c.01-.033.019-.065.03-.1s.024-.071.038-.105c.007-.019.014-.039.023-.058s.027-.063.042-.094.03-.062.046-.092.032-.061.049-.089.042-.068.063-.1.045-.065.068-.1a1.114,1.114,0,0,1,.072-.094c.023-.029.046-.058.071-.085,0,0,0,0,.007-.007.026-.029.052-.056.079-.084s.055-.055.084-.081h.068c.03,0,.062,0,.092.006.053,0,.105.011.16.019.307.048.616.089.924.128.206.025.411.049.617.071l.466.045.154.013c.206.019.413.035.62.048s.413.026.619.036.435.017.653.025l.216,0c.1,0,.193,0,.29,0l.375,0h.019l.379,0c.257,0,.515-.009.771-.017l.386-.016.335-.017.247-.016.053,0,.3-.02h.01q.182-.013.363-.03l.1-.01.128-.01.085-.009.213-.022c.526-.055,1.053-.121,1.578-.2a2.329,2.329,0,0,1,.477-.024c.036,0,.072,0,.108.009a1.9,1.9,0,0,1,.254.039c.032.006.062.013.092.022s.048.011.071.019l.036.011a2.2,2.2,0,0,1,.212.078,2.3,2.3,0,0,1,.738.492l.078.081c.05.055.1.112.143.172.032.042.062.085.091.13a.106.106,0,0,1,.011.017c.029.043.055.088.081.134a2.283,2.283,0,0,1,.258.769c.007.043.011.088.016.133,0,.027,0,.056.007.085S110.464,241.659,110.464,241.7Z" transform="translate(-84.865 -217.069)"/><path class="g" d="M117.735,228.974v.041a16.771,16.771,0,0,1-1.553,7.047q-.318.684-.693,1.328a14.1,14.1,0,0,1-5.53,5.425,9.15,9.15,0,0,1-4.617,1,9.574,9.574,0,0,1-2.228-.785,12.2,12.2,0,0,1-2.848-1.991q.417.256.854.474l.021.011a7.907,7.907,0,0,0,4.126.746,8.274,8.274,0,0,0,3.131-.768,14.1,14.1,0,0,0,5.53-5.425q.375-.643.693-1.328a17.553,17.553,0,0,0,1.12-7.247v-.041c0-.077,0-.163-.005-.255a2.986,2.986,0,0,0-.145-.826,2.906,2.906,0,0,0-.339-.706c.347.209.663.39.943.543a2.953,2.953,0,0,1,1.389,1.68,2.986,2.986,0,0,1,.145.826C117.732,228.811,117.735,228.9,117.735,228.974Z" transform="translate(-87.725 -205.7)"/></g><g transform="translate(0 6.251)"><path class="h" d="M27.575,61.688a28.6,28.6,0,0,1-.222,3.572s0,.007,0,.01q-.091.722-.218,1.435a28.3,28.3,0,0,1-1.286,4.765h0q-.233.636-.5,1.256c-.244.583-.509,1.154-.79,1.715-.182.362-.372.721-.57,1.074l-.1.17a28.489,28.489,0,0,1-2.3,3.441h0c-.159.206-.32.408-.486.609q-.6.727-1.24,1.41c-.163.175-.329.346-.5.516q-.093.1-.19.19a28.155,28.155,0,0,1-2.374,2.11c-.264.21-.531.415-.8.617-.6.438-1.208.857-1.839,1.249A18,18,0,0,1,8.406,72.164q0-.792.063-1.568a10.357,10.357,0,0,1-1.174.069,7.294,7.294,0,1,1,0-14.589h4.9a10.382,10.382,0,0,1,5.721-8.234l-3.974-9.46a1.863,1.863,0,0,1-1.41-1.782,28.415,28.415,0,0,1,4.013,2.6l3.322,7.907a10.392,10.392,0,0,1,2.638-.34c.291,0,.581.011.867.038q.7,1.131,1.289,2.332s0,0,0,0q.134.273.264.549h0a28.151,28.151,0,0,1,2.092,6.384h0A28.432,28.432,0,0,1,27.575,61.688Z" transform="translate(0 -36.601)"/></g><g transform="translate(3.782 60.169)"><path d="M7.5,39.16v1.662a2.41,2.41,0,0,0,.49.075q.3.02.57.02h0a1.687,1.687,0,0,0,.907-.225.769.769,0,0,0,.36-.7h0a.7.7,0,0,0-.3-.639,1.731,1.731,0,0,0-.914-.191H7.5Zm0-3.267V37.5H8.49a1.344,1.344,0,0,0,.85-.217.783.783,0,0,0,.265-.64h0a.685.685,0,0,0-.306-.586,1.591,1.591,0,0,0-.919-.217h0q-.2,0-.47.014a3.39,3.39,0,0,0-.415.041Zm.885,6.848h0q-.232,0-.545-.014t-.647-.055q-.333-.041-.659-.1a3.254,3.254,0,0,1-.6-.169h0a1.015,1.015,0,0,1-.75-.994h0v-6.36a.6.6,0,0,1,.157-.442,1.136,1.136,0,0,1,.429-.251h0a5.194,5.194,0,0,1,1.158-.239,13.263,13.263,0,0,1,1.429-.075h0a5.087,5.087,0,0,1,2.681.586,1.984,1.984,0,0,1,.941,1.812h0a1.631,1.631,0,0,1-.355,1.054,2.007,2.007,0,0,1-.953.647h0a2.36,2.36,0,0,1,1.137.7A1.815,1.815,0,0,1,12.26,40.1h0a2.209,2.209,0,0,1-1,1.995A5.313,5.313,0,0,1,8.38,42.741Zm8.51,0h0a4.753,4.753,0,0,1-1.491-.225,3.368,3.368,0,0,1-1.2-.673,3.111,3.111,0,0,1-.8-1.131,4,4,0,0,1-.294-1.593h0a3.718,3.718,0,0,1,.294-1.546A2.979,2.979,0,0,1,15.256,35.9a4.053,4.053,0,0,1,1.254-.2h0a3.77,3.77,0,0,1,1.313.219,3.147,3.147,0,0,1,1.021.6,2.671,2.671,0,0,1,.666.914,2.776,2.776,0,0,1,.239,1.156h0a.933.933,0,0,1-.258.709,1.3,1.3,0,0,1-.722.313h0l-3.363.5a1.129,1.129,0,0,0,.611.675,2.419,2.419,0,0,0,1.062.224h0a3.831,3.831,0,0,0,1.055-.142,3.37,3.37,0,0,0,.811-.335h0a1.15,1.15,0,0,1,.367.383.971.971,0,0,1,.15.517h0a.973.973,0,0,1-.572.912h0a3.048,3.048,0,0,1-.98.313A6.884,6.884,0,0,1,16.89,42.741Zm-.381-5.35h0a1.361,1.361,0,0,0-.565.108,1.141,1.141,0,0,0-.389.28,1.183,1.183,0,0,0-.224.381,1.572,1.572,0,0,0-.089.429h0l2.328-.381a1.036,1.036,0,0,0-.3-.545A1,1,0,0,0,16.509,37.391Zm7.856,5.35h0a4.753,4.753,0,0,1-1.491-.225,3.368,3.368,0,0,1-1.2-.673,3.111,3.111,0,0,1-.8-1.131,4,4,0,0,1-.294-1.593h0a3.718,3.718,0,0,1,.294-1.546A2.979,2.979,0,0,1,22.731,35.9a4.053,4.053,0,0,1,1.254-.2h0a3.77,3.77,0,0,1,1.313.219,3.147,3.147,0,0,1,1.021.6,2.69,2.69,0,0,1,.668.914,2.793,2.793,0,0,1,.237,1.156h0a.933.933,0,0,1-.258.709,1.3,1.3,0,0,1-.722.313h0l-3.363.5a1.129,1.129,0,0,0,.613.675,2.408,2.408,0,0,0,1.061.224h0a3.831,3.831,0,0,0,1.055-.142,3.37,3.37,0,0,0,.811-.335h0a1.151,1.151,0,0,1,.367.383.971.971,0,0,1,.15.517h0a.973.973,0,0,1-.572.912h0a3.048,3.048,0,0,1-.98.313A6.884,6.884,0,0,1,24.365,42.741Zm-.381-5.35h0a1.361,1.361,0,0,0-.565.108,1.141,1.141,0,0,0-.389.28,1.183,1.183,0,0,0-.224.381,1.572,1.572,0,0,0-.089.429h0l2.328-.381a1.036,1.036,0,0,0-.3-.545A1,1,0,0,0,23.984,37.391Zm5.581-1.213H27.523a1.83,1.83,0,0,1-.176-.408,1.8,1.8,0,0,1-.082-.545h0a1.036,1.036,0,0,1,.237-.763.856.856,0,0,1,.62-.231h5.936a1.774,1.774,0,0,1,.178.408,1.8,1.8,0,0,1,.082.545h0a1.031,1.031,0,0,1-.239.763.85.85,0,0,1-.618.231H31.949v6.29a3.794,3.794,0,0,1-.471.082,4.96,4.96,0,0,1-.632.041h0a2.819,2.819,0,0,1-.552-.048.982.982,0,0,1-.4-.169.738.738,0,0,1-.246-.342,1.651,1.651,0,0,1-.082-.572h0Zm11.056,6.073h0a1.638,1.638,0,0,1-.593.285,2.985,2.985,0,0,1-.878.123h0a2.534,2.534,0,0,1-.98-.171,1.026,1.026,0,0,1-.558-.47h0q-.15-.313-.367-.809t-.456-1.11q-.239-.613-.49-1.3t-.483-1.4q-.232-.709-.435-1.39t-.355-1.279h0a1.763,1.763,0,0,1,.552-.347,1.914,1.914,0,0,1,.77-.157h0a1.463,1.463,0,0,1,.823.212,1.28,1.28,0,0,1,.47.782h0q.367,1.334.743,2.553t.782,2.539h.082q.367-1.281.755-2.792t.743-3.009h0a3.194,3.194,0,0,1,.524-.2,2.244,2.244,0,0,1,.634-.082h0a1.562,1.562,0,0,1,.857.225.809.809,0,0,1,.354.741h0a3.913,3.913,0,0,1-.143.871q-.142.572-.367,1.288t-.5,1.491q-.278.775-.558,1.464t-.524,1.211A4.775,4.775,0,0,1,40.622,42.251Z" transform="translate(-5.18 -34.04)"/></g></svg>